<?xml version="1.0" standalone="no"?>
<!DOCTYPE svg PUBLIC "-//W3C//DTD SVG 20010904//EN"
 "http://www.w3.org/TR/2001/REC-SVG-20010904/DTD/svg10.dtd">
<svg version="1.0" xmlns="http://www.w3.org/2000/svg"
 width="688.000000pt" height="688.000000pt" viewBox="0 0 688.000000 688.000000"
 preserveAspectRatio="xMidYMid meet">
<metadata>
Created by potrace 1.14, written by Peter Selinger 2001-2017
</metadata>
<g transform="translate(0.000000,688.000000) scale(0.100000,-0.100000)"
fill="#000000" stroke="none">
<path d="M4410 6724 c-179 -23 -387 -72 -565 -135 -1186 -416 -2505 -1616
-3071 -2794 -306 -638 -364 -1206 -178 -1764 150 -453 441 -835 889 -1171 506
-379 1199 -645 1915 -735 749 -94 1506 26 2002 318 528 311 845 1011 945 2087
20 225 23 805 5 1040 -99 1252 -448 2291 -944 2815 -164 174 -330 273 -538
321 -64 15 -385 27 -460 18z m23 -1330 c221 -42 445 -167 601 -336 376 -405
404 -1013 69 -1453 -163 -214 -401 -361 -673 -417 -139 -29 -375 -21 -510 16
-116 32 -293 118 -381 185 -200 152 -351 377 -416 619 -24 88 -27 114 -27 282
0 169 2 193 26 283 79 288 266 535 523 690 115 69 293 129 436 146 91 12 246
5 352 -15z"/>
</g>
</svg>
