<svg width="256" height="50" fill="none" xmlns="http://www.w3.org/2000/svg"><path d="M30.7 5.029C21.262 2.737 3.087 18.395 3.049 30.024c-.047 13.859 20.69 19.9 30.773 14.063C43.903 38.25 40.138 7.32 30.7 5.029Z" fill="#ABABFA"/><path d="M33.362 20.063a7.034 7.034 0 1 1-14.069 0 7.034 7.034 0 0 1 14.07 0Z" fill="#111131"/><path d="M181.886 34.243h5.414c3.267 0 4.775-1.685 4.775-3.987 0-2.31-1.53-3.698-3.008-3.802v-.119c1.359-.364 2.413-1.418 2.413-3.32 0-2.286-1.492-3.98-4.462-3.98h-5.132v15.208Zm1.389-1.247v-5.859h4.084c2.042 0 3.386 1.381 3.386 3.119 0 1.574-1.099 2.74-3.445 2.74h-4.025Zm0-7.092v-5.62h3.743c2.079 0 3.133 1.12 3.133 2.732 0 1.67-1.21 2.888-3.007 2.888h-3.869Zm12.152-6.868h-1.322v15.207h1.322V19.036Zm6.885 15.445c2.955 0 5.02-2.413 5.02-5.889 0-3.497-2.065-5.91-5.02-5.91-2.956 0-5.02 2.413-5.02 5.91 0 3.476 2.064 5.889 5.02 5.889Zm0-1.21c-2.369 0-3.691-2.124-3.691-4.678 0-2.555 1.322-4.708 3.691-4.708 2.369 0 3.69 2.153 3.69 4.707 0 2.555-1.321 4.679-3.69 4.679Zm11.227 5.487c2.703 0 4.708-1.322 4.708-4.218V22.838h-1.292v2.175h-.134c-.468-1.024-1.411-2.331-3.505-2.331-2.821 0-4.715 2.361-4.715 5.829 0 3.497 1.96 5.614 4.693 5.614 2.05 0 3.052-1.188 3.505-2.235h.119v2.569c0 2.123-1.359 3.111-3.379 3.111-1.953 0-2.888-.943-3.371-1.812l-1.084.713c.668 1.307 2.123 2.287 4.455 2.287Zm-.089-5.844c-2.265 0-3.52-1.812-3.52-4.426 0-2.569 1.233-4.603 3.52-4.603 2.235 0 3.49 1.93 3.49 4.603 0 2.755-1.292 4.426-3.49 4.426ZM56.413 18.948H62v15.068h3.814V18.948h5.587v-3.182H56.413v3.182Zm20.383 15.335c3.386 0 5.667-1.648 6.202-4.188l-3.51-.232c-.384 1.043-1.364 1.586-2.63 1.586-1.898 0-3.1-1.256-3.1-3.297v-.009h9.32v-1.042c0-4.652-2.816-6.95-6.433-6.95-4.028 0-6.639 2.86-6.639 7.084 0 4.34 2.575 7.048 6.79 7.048Zm-3.039-8.492c.08-1.56 1.266-2.807 2.95-2.807 1.649 0 2.789 1.176 2.798 2.807h-5.748Zm16.728 8.492c3.644 0 5.934-2.139 6.113-5.284h-3.582c-.223 1.461-1.186 2.281-2.487 2.281-1.773 0-2.922-1.488-2.922-4.108 0-2.584 1.158-4.063 2.922-4.063 1.39 0 2.282.918 2.487 2.281h3.582c-.16-3.163-2.558-5.24-6.131-5.24-4.152 0-6.719 2.879-6.719 7.076 0 4.16 2.522 7.057 6.737 7.057Zm11.084-8.18c.009-1.765 1.088-2.798 2.638-2.798 1.542 0 2.451.989 2.442 2.673v8.038h3.796V25.3c.009-3.208-1.881-5.15-4.732-5.15-2.076 0-3.466.98-4.09 2.593h-.16v-6.978h-3.69v18.25h3.796v-7.913Zm26.781-3.948c-.507-4.215-3.698-6.638-7.921-6.638-4.821 0-8.501 3.404-8.501 9.374 0 5.952 3.618 9.374 8.501 9.374 4.678 0 7.503-3.11 7.921-6.47l-3.903-.017c-.365 1.952-1.898 3.074-3.956 3.074-2.771 0-4.651-2.058-4.651-5.961 0-3.796 1.853-5.961 4.678-5.961 2.112 0 3.635 1.22 3.929 3.225h3.903Zm10.218 6.033c.009 1.836-1.247 2.798-2.61 2.798-1.435 0-2.362-1.007-2.371-2.62V20.33h-3.796v8.714c.009 3.2 1.88 5.15 4.634 5.15 2.058 0 3.538-1.06 4.152-2.663h.143v2.486h3.644V20.329h-3.796v7.859Zm11.816 6.095c3.386 0 5.667-1.648 6.202-4.188l-3.511-.232c-.383 1.043-1.364 1.586-2.629 1.586-1.898 0-3.101-1.256-3.101-3.297v-.009h9.321v-1.042c0-4.652-2.816-6.95-6.434-6.95-4.027 0-6.638 2.86-6.638 7.084 0 4.34 2.575 7.048 6.79 7.048Zm-3.039-8.492c.08-1.56 1.265-2.807 2.95-2.807 1.648 0 2.789 1.176 2.798 2.807h-5.748Zm21.931-1.56c-.338-2.521-2.37-4.08-5.827-4.08-3.502 0-5.81 1.621-5.801 4.259-.009 2.05 1.283 3.377 3.956 3.912l2.37.472c1.195.24 1.738.677 1.756 1.363-.018.811-.9 1.39-2.228 1.39-1.354 0-2.254-.579-2.486-1.693l-3.734.196c.357 2.62 2.585 4.233 6.211 4.233 3.547 0 6.086-1.809 6.095-4.509-.009-1.978-1.301-3.163-3.956-3.707l-2.477-.499c-1.275-.276-1.747-.713-1.738-1.372-.009-.82.918-1.355 2.094-1.355 1.319 0 2.103.722 2.29 1.604l3.475-.213Z" fill="#ABABFA"/></svg>