<svg width="218" height="50" fill="none" xmlns="http://www.w3.org/2000/svg"><path d="M178.72 34.51h5.413c3.267 0 4.775-1.685 4.775-3.987 0-2.31-1.53-3.698-3.008-3.802v-.119c1.359-.364 2.414-1.418 2.414-3.32 0-2.286-1.493-3.98-4.463-3.98h-5.131v15.209Zm1.388-1.247v-5.859h4.084c2.043 0 3.387 1.381 3.387 3.119 0 1.574-1.099 2.74-3.446 2.74h-4.025Zm0-7.091V20.55h3.743c2.079 0 3.134 1.122 3.134 2.733 0 1.67-1.211 2.889-3.008 2.889h-3.869Zm12.152-6.87h-1.322v15.209h1.322V19.303Zm6.885 15.446c2.956 0 5.02-2.413 5.02-5.888 0-3.498-2.064-5.911-5.02-5.911-2.955 0-5.02 2.413-5.02 5.91 0 3.476 2.065 5.89 5.02 5.89Zm0-1.21c-2.369 0-3.69-2.124-3.69-4.678 0-2.555 1.321-4.708 3.69-4.708 2.369 0 3.691 2.153 3.691 4.708 0 2.554-1.322 4.678-3.691 4.678Zm11.227 5.487c2.703 0 4.708-1.321 4.708-4.217V23.105h-1.292v2.175h-.133c-.468-1.024-1.411-2.331-3.505-2.331-2.822 0-4.716 2.361-4.716 5.829 0 3.497 1.961 5.614 4.693 5.614 2.05 0 3.052-1.188 3.505-2.235h.119v2.569c0 2.124-1.359 3.111-3.379 3.111-1.953 0-2.888-.943-3.371-1.812l-1.084.713c.668 1.307 2.124 2.287 4.455 2.287Zm-.089-5.844c-2.265 0-3.519-1.811-3.519-4.425 0-2.57 1.232-4.604 3.519-4.604 2.235 0 3.49 1.93 3.49 4.604 0 2.755-1.292 4.425-3.49 4.425ZM56.591 19.215h5.587v15.068h3.814V19.215h5.587v-3.181H56.591v3.18ZM76.974 34.55c3.386 0 5.668-1.648 6.202-4.188l-3.51-.232c-.384 1.043-1.364 1.587-2.63 1.587-1.897 0-3.1-1.257-3.1-3.297v-.01h9.32v-1.042c0-4.651-2.815-6.95-6.433-6.95-4.028 0-6.639 2.86-6.639 7.084 0 4.34 2.576 7.048 6.79 7.048Zm-3.038-8.492c.08-1.56 1.265-2.807 2.95-2.807 1.648 0 2.788 1.176 2.797 2.807h-5.747Zm16.727 8.492c3.645 0 5.935-2.138 6.113-5.284h-3.582c-.223 1.461-1.185 2.281-2.486 2.281-1.774 0-2.923-1.488-2.923-4.108 0-2.584 1.158-4.063 2.923-4.063 1.39 0 2.28.918 2.486 2.281h3.582c-.16-3.163-2.557-5.24-6.13-5.24-4.153 0-6.72 2.879-6.72 7.076 0 4.161 2.522 7.057 6.737 7.057Zm11.085-8.18c.009-1.764 1.087-2.798 2.637-2.798 1.542 0 2.451.99 2.442 2.673v8.038h3.796v-8.715c.009-3.208-1.88-5.15-4.732-5.15-2.076 0-3.466.98-4.09 2.593h-.16v-6.977h-3.69v18.249h3.797V26.37Zm26.781-3.947c-.508-4.215-3.698-6.639-7.922-6.639-4.821 0-8.501 3.404-8.501 9.374 0 5.953 3.618 9.374 8.501 9.374 4.678 0 7.503-3.11 7.922-6.469l-3.903-.018c-.366 1.952-1.898 3.074-3.957 3.074-2.771 0-4.651-2.058-4.651-5.96 0-3.797 1.853-5.962 4.678-5.962 2.112 0 3.636 1.22 3.93 3.226h3.903Zm10.218 6.032c.009 1.836-1.248 2.798-2.611 2.798-1.435 0-2.362-1.007-2.37-2.62v-8.037h-3.796v8.715c.008 3.199 1.88 5.15 4.633 5.15 2.059 0 3.538-1.06 4.153-2.664h.142v2.486h3.645V20.596h-3.796v7.86Zm11.815 6.095c3.386 0 5.667-1.648 6.202-4.188l-3.511-.232c-.383 1.043-1.363 1.587-2.629 1.587-1.898 0-3.101-1.257-3.101-3.297v-.01h9.321v-1.042c0-4.651-2.816-6.95-6.434-6.95-4.027 0-6.638 2.86-6.638 7.084 0 4.34 2.575 7.048 6.79 7.048Zm-3.039-8.492c.081-1.56 1.266-2.807 2.95-2.807 1.648 0 2.789 1.176 2.798 2.807h-5.748Zm21.932-1.56c-.339-2.521-2.371-4.08-5.828-4.08-3.502 0-5.81 1.621-5.801 4.259-.009 2.05 1.283 3.377 3.956 3.912l2.371.472c1.194.24 1.737.677 1.755 1.363-.018.811-.9 1.39-2.228 1.39-1.354 0-2.254-.579-2.486-1.692l-3.733.195c.356 2.62 2.584 4.233 6.211 4.233 3.546 0 6.086-1.809 6.095-4.509-.009-1.978-1.301-3.163-3.957-3.707l-2.477-.499c-1.274-.276-1.747-.713-1.738-1.372-.009-.82.918-1.354 2.094-1.354 1.319 0 2.103.721 2.29 1.604l3.476-.214Z" fill="#413E52"/><path d="M30.7 5.148C21.262 2.857 3.088 18.514 3.05 30.143c-.047 13.859 20.691 19.9 30.773 14.063C43.904 38.369 40.139 7.439 30.7 5.148Z" fill="#5C5CFF"/><path d="M33.362 20.183a7.034 7.034 0 1 1-14.069 0 7.034 7.034 0 0 1 14.069 0Z" fill="#fff"/></svg>