<svg width="60" height="60" fill="none" xmlns="http://www.w3.org/2000/svg"><path d="M56.59.297a3.002 3.002 0 0 0-.7.023l-6.136.899a30.986 30.986 0 0 0-19.008 10.453l-8.82 10.246-15.344 3.816a4.987 4.987 0 0 0-2.602 1.614L.703 31.203A1.98 1.98 0 0 0 .41 33.34a1.984 1.984 0 0 0 1.817 1.16h10.187c.047.398.176.781.379 1.137l-2.156 3.968a1.16 1.16 0 0 0-.07.16 3.15 3.15 0 0 0-.157.903l-.45.137c-3.608 1.105-6.35 3.883-7.339 7.43-.824 2.964-1.062 6.019-1.129 7.581-.02.559.192 1.102.586 1.496a2 2 0 0 0 1.406.583c.032 0 .059 0 .086-.004 1.551-.063 4.594-.297 7.547-1.114 3.524-.976 6.383-3.82 7.457-7.418l.067-.226c.054.004.105.011.16.011a3.34 3.34 0 0 0 1.039-.167.685.685 0 0 0 .144-.067l3.98-2.097a2.95 2.95 0 0 0 1.036.374v10.09c0 .79.441 1.485 1.156 1.817a1.977 1.977 0 0 0 2.137-.293l3.86-3.282a5.012 5.012 0 0 0 1.613-2.601l3.75-15.086 10.421-8.969A30.996 30.996 0 0 0 58.391 9.855l.894-6.136a2.95 2.95 0 0 0-.84-2.551A3.001 3.001 0 0 0 56.59.297Zm-.262 1.992a1 1 0 0 1 .703.29c.223.226.328.538.281.855l-.898 6.132a29.005 29.005 0 0 1-9.777 17.785L36.19 36.34a.953.953 0 0 0-.367.316l-9.695 8.34c-.39.34-.988.316-1.36-.05L14.668 34.843a1.01 1.01 0 0 1-.055-1.36l17.649-20.508a28.949 28.949 0 0 1 7.562-6.238l4.469 4.469c.195.195.45.293.707.293a1 1 0 0 0 .707-1.707l-4.031-4.031a29.059 29.059 0 0 1 8.367-2.567l6.133-.898c.05-.004.101-.008.152-.008ZM48 12.5a1 1 0 0 0-.707 1.707l3 3c.195.195.45.293.707.293a1 1 0 0 0 .707-1.707l-3-3A1 1 0 0 0 48 12.5Zm-8 1c-3.309 0-6 2.691-6 6s2.691 6 6 6 6-2.691 6-6-2.691-6-6-6Zm0 2c2.207 0 4 1.793 4 4s-1.793 4-4 4-4-1.793-4-4 1.793-4 4-4Zm-20.328 9.039-6.57 7.637c-.086.105-.157.215-.227.324H2.227l3.28-3.86a2.984 2.984 0 0 1 1.56-.964l12.605-3.137Zm12.605.383a1 1 0 0 0-.71 1.707l1.417 1.414c.192.195.45.293.703.293a.987.987 0 0 0 .708-.293.993.993 0 0 0 0-1.414l-1.41-1.414a1.007 1.007 0 0 0-.708-.293Zm-3.539 3.535a1 1 0 0 0-.707 1.707l1.418 1.414c.192.195.45.293.707.293a.985.985 0 0 0 .703-.293.997.997 0 0 0 0-1.418l-1.414-1.41a1 1 0 0 0-.707-.293Zm-3.535 3.54a.996.996 0 0 0-.707 1.706l1.414 1.41c.195.196.45.293.707.293a.993.993 0 0 0 .707-.293.995.995 0 0 0 0-1.41l-1.414-1.418a.996.996 0 0 0-.707-.289Zm-3.531 3.534a.978.978 0 0 0-.707.293.988.988 0 0 0 0 1.41l1.41 1.418a1.006 1.006 0 0 0 1.414 0c.39-.39.39-1.023 0-1.418l-1.414-1.41a.975.975 0 0 0-.703-.293Zm-7.457 1.684 8.172 8.176-3.25 1.71c-.383.11-.75.032-.989-.206l-5.433-5.43a1.048 1.048 0 0 1-.274-.996l1.774-3.254Zm20.68 2.879-3.07 12.343A3.001 3.001 0 0 1 30.858 54L27 57.277V46.82c.153-.09.298-.191.438-.308l7.457-6.418ZM11.03 42.566c.082.11.172.215.27.309l5.433 5.438c.016.015.035.023.051.042l-.129.43c-.879 2.95-3.207 5.27-6.074 6.063-2.758.765-5.629.984-7.09 1.054.063-1.472.285-4.36 1.055-7.133.805-2.882 3.047-5.148 6-6.05l.484-.153Z" fill="url(#a)"/><defs><linearGradient id="a" x1="59" y1="-7" x2="12.5" y2="59" gradientUnits="userSpaceOnUse"><stop stop-color="#8989F8"/><stop offset="1" stop-color="#5C5CFF"/></linearGradient></defs></svg>