<svg width="404" height="392" fill="none" xmlns="http://www.w3.org/2000/svg"><g clip-path="url(#a)" fill="#ABABFA"><path d="M4 4 0 0v8l4-4ZM24 4l-4-4v8l4-4ZM44 4l-4-4v8l4-4ZM64 4l-4-4v8l4-4ZM84 4l-4-4v8l4-4ZM104 4l-4-4v8l4-4ZM124 4l-4-4v8l4-4ZM144 4l-4-4v8l4-4ZM164 4l-4-4v8l4-4ZM184 4l-4-4v8l4-4ZM204 4l-4-4v8l4-4ZM224 4l-4-4v8l4-4ZM244 4l-4-4v8l4-4ZM264 4l-4-4v8l4-4ZM284 4l-4-4v8l4-4ZM304 4l-4-4v8l4-4ZM324 4l-4-4v8l4-4ZM344 4l-4-4v8l4-4ZM364 4l-4-4v8l4-4ZM384 4l-4-4v8l4-4ZM404 4l-4-4v8l4-4ZM4 28l-4-4v8l4-4ZM24 28l-4-4v8l4-4ZM44 28l-4-4v8l4-4ZM64 28l-4-4v8l4-4ZM84 28l-4-4v8l4-4ZM104 28l-4-4v8l4-4ZM124 28l-4-4v8l4-4ZM144 28l-4-4v8l4-4ZM164 28l-4-4v8l4-4ZM184 28l-4-4v8l4-4ZM204 28l-4-4v8l4-4ZM224 28l-4-4v8l4-4ZM244 28l-4-4v8l4-4ZM264 28l-4-4v8l4-4ZM284 28l-4-4v8l4-4ZM304 28l-4-4v8l4-4ZM324 28l-4-4v8l4-4ZM344 28l-4-4v8l4-4ZM364 28l-4-4v8l4-4ZM384 28l-4-4v8l4-4ZM404 28l-4-4v8l4-4ZM4 52l-4-4v8l4-4ZM24 52l-4-4v8l4-4ZM44 52l-4-4v8l4-4ZM64 52l-4-4v8l4-4ZM84 52l-4-4v8l4-4ZM104 52l-4-4v8l4-4ZM124 52l-4-4v8l4-4ZM144 52l-4-4v8l4-4ZM164 52l-4-4v8l4-4ZM184 52l-4-4v8l4-4ZM204 52l-4-4v8l4-4ZM224 52l-4-4v8l4-4ZM244 52l-4-4v8l4-4ZM264 52l-4-4v8l4-4ZM284 52l-4-4v8l4-4ZM304 52l-4-4v8l4-4ZM324 52l-4-4v8l4-4ZM344 52l-4-4v8l4-4ZM364 52l-4-4v8l4-4ZM384 52l-4-4v8l4-4ZM404 52l-4-4v8l4-4ZM4 76l-4-4v8l4-4ZM24 76l-4-4v8l4-4ZM44 76l-4-4v8l4-4ZM64 76l-4-4v8l4-4ZM84 76l-4-4v8l4-4ZM104 76l-4-4v8l4-4ZM124 76l-4-4v8l4-4ZM144 76l-4-4v8l4-4ZM164 76l-4-4v8l4-4ZM184 76l-4-4v8l4-4ZM204 76l-4-4v8l4-4ZM224 76l-4-4v8l4-4ZM244 76l-4-4v8l4-4ZM264 76l-4-4v8l4-4ZM284 76l-4-4v8l4-4ZM304 76l-4-4v8l4-4ZM324 76l-4-4v8l4-4ZM344 76l-4-4v8l4-4ZM364 76l-4-4v8l4-4ZM384 76l-4-4v8l4-4ZM404 76l-4-4v8l4-4ZM4 100l-4-4v8l4-4ZM24 100l-4-4v8l4-4ZM44 100l-4-4v8l4-4ZM64 100l-4-4v8l4-4ZM84 100l-4-4v8l4-4ZM104 100l-4-4v8l4-4ZM124 100l-4-4v8l4-4ZM144 100l-4-4v8l4-4ZM164 100l-4-4v8l4-4ZM184 100l-4-4v8l4-4ZM204 100l-4-4v8l4-4ZM224 100l-4-4v8l4-4ZM244 100l-4-4v8l4-4ZM264 100l-4-4v8l4-4ZM284 100l-4-4v8l4-4ZM304 100l-4-4v8l4-4ZM324 100l-4-4v8l4-4ZM344 100l-4-4v8l4-4ZM364 100l-4-4v8l4-4ZM384 100l-4-4v8l4-4ZM404 100l-4-4v8l4-4ZM4 124l-4-4v8l4-4ZM24 124l-4-4v8l4-4ZM44 124l-4-4v8l4-4ZM64 124l-4-4v8l4-4ZM84 124l-4-4v8l4-4ZM104 124l-4-4v8l4-4ZM124 124l-4-4v8l4-4ZM144 124l-4-4v8l4-4ZM164 124l-4-4v8l4-4ZM184 124l-4-4v8l4-4ZM204 124l-4-4v8l4-4ZM224 124l-4-4v8l4-4ZM244 124l-4-4v8l4-4ZM264 124l-4-4v8l4-4ZM284 124l-4-4v8l4-4ZM304 124l-4-4v8l4-4ZM324 124l-4-4v8l4-4ZM344 124l-4-4v8l4-4ZM364 124l-4-4v8l4-4ZM384 124l-4-4v8l4-4ZM404 124l-4-4v8l4-4ZM4 148l-4-4v8l4-4ZM24 148l-4-4v8l4-4ZM44 148l-4-4v8l4-4ZM64 148l-4-4v8l4-4ZM84 148l-4-4v8l4-4ZM104 148l-4-4v8l4-4ZM124 148l-4-4v8l4-4ZM144 148l-4-4v8l4-4ZM164 148l-4-4v8l4-4ZM184 148l-4-4v8l4-4ZM204 148l-4-4v8l4-4ZM224 148l-4-4v8l4-4ZM244 148l-4-4v8l4-4ZM264 148l-4-4v8l4-4ZM284 148l-4-4v8l4-4ZM304 148l-4-4v8l4-4ZM324 148l-4-4v8l4-4ZM344 148l-4-4v8l4-4ZM364 148l-4-4v8l4-4ZM384 148l-4-4v8l4-4ZM404 148l-4-4v8l4-4ZM4 172l-4-4v8l4-4ZM24 172l-4-4v8l4-4ZM44 172l-4-4v8l4-4ZM64 172l-4-4v8l4-4ZM84 172l-4-4v8l4-4ZM104 172l-4-4v8l4-4ZM124 172l-4-4v8l4-4ZM144 172l-4-4v8l4-4ZM164 172l-4-4v8l4-4ZM184 172l-4-4v8l4-4ZM204 172l-4-4v8l4-4ZM224 172l-4-4v8l4-4ZM244 172l-4-4v8l4-4ZM264 172l-4-4v8l4-4ZM284 172l-4-4v8l4-4ZM304 172l-4-4v8l4-4ZM324 172l-4-4v8l4-4ZM344 172l-4-4v8l4-4ZM364 172l-4-4v8l4-4ZM384 172l-4-4v8l4-4ZM404 172l-4-4v8l4-4ZM4 196l-4-4v8l4-4ZM24 196l-4-4v8l4-4ZM44 196l-4-4v8l4-4ZM64 196l-4-4v8l4-4ZM84 196l-4-4v8l4-4ZM104 196l-4-4v8l4-4ZM124 196l-4-4v8l4-4ZM144 196l-4-4v8l4-4ZM164 196l-4-4v8l4-4ZM184 196l-4-4v8l4-4ZM204 196l-4-4v8l4-4ZM224 196l-4-4v8l4-4ZM244 196l-4-4v8l4-4ZM264 196l-4-4v8l4-4ZM284 196l-4-4v8l4-4ZM304 196l-4-4v8l4-4ZM324 196l-4-4v8l4-4ZM344 196l-4-4v8l4-4ZM364 196l-4-4v8l4-4ZM384 196l-4-4v8l4-4ZM404 196l-4-4v8l4-4ZM4 220l-4-4v8l4-4ZM24 220l-4-4v8l4-4ZM44 220l-4-4v8l4-4ZM64 220l-4-4v8l4-4ZM84 220l-4-4v8l4-4ZM104 220l-4-4v8l4-4ZM124 220l-4-4v8l4-4ZM144 220l-4-4v8l4-4ZM164 220l-4-4v8l4-4ZM184 220l-4-4v8l4-4ZM204 220l-4-4v8l4-4ZM224 220l-4-4v8l4-4ZM244 220l-4-4v8l4-4ZM264 220l-4-4v8l4-4ZM284 220l-4-4v8l4-4ZM304 220l-4-4v8l4-4ZM324 220l-4-4v8l4-4ZM344 220l-4-4v8l4-4ZM364 220l-4-4v8l4-4ZM384 220l-4-4v8l4-4ZM404 220l-4-4v8l4-4ZM4 244l-4-4v8l4-4ZM24 244l-4-4v8l4-4ZM44 244l-4-4v8l4-4ZM64 244l-4-4v8l4-4ZM84 244l-4-4v8l4-4ZM104 244l-4-4v8l4-4ZM124 244l-4-4v8l4-4ZM144 244l-4-4v8l4-4ZM164 244l-4-4v8l4-4ZM184 244l-4-4v8l4-4ZM204 244l-4-4v8l4-4ZM224 244l-4-4v8l4-4ZM244 244l-4-4v8l4-4ZM264 244l-4-4v8l4-4ZM284 244l-4-4v8l4-4ZM304 244l-4-4v8l4-4ZM324 244l-4-4v8l4-4ZM344 244l-4-4v8l4-4ZM364 244l-4-4v8l4-4ZM384 244l-4-4v8l4-4ZM404 244l-4-4v8l4-4ZM4 268l-4-4v8l4-4ZM24 268l-4-4v8l4-4ZM44 268l-4-4v8l4-4ZM64 268l-4-4v8l4-4ZM84 268l-4-4v8l4-4ZM104 268l-4-4v8l4-4ZM124 268l-4-4v8l4-4ZM144 268l-4-4v8l4-4ZM164 268l-4-4v8l4-4ZM184 268l-4-4v8l4-4ZM204 268l-4-4v8l4-4ZM224 268l-4-4v8l4-4ZM244 268l-4-4v8l4-4ZM264 268l-4-4v8l4-4ZM284 268l-4-4v8l4-4ZM304 268l-4-4v8l4-4ZM324 268l-4-4v8l4-4ZM344 268l-4-4v8l4-4ZM364 268l-4-4v8l4-4ZM384 268l-4-4v8l4-4ZM404 268l-4-4v8l4-4ZM4 292l-4-4v8l4-4ZM24 292l-4-4v8l4-4ZM44 292l-4-4v8l4-4ZM64 292l-4-4v8l4-4ZM84 292l-4-4v8l4-4ZM104 292l-4-4v8l4-4ZM124 292l-4-4v8l4-4ZM144 292l-4-4v8l4-4ZM164 292l-4-4v8l4-4ZM184 292l-4-4v8l4-4ZM204 292l-4-4v8l4-4ZM224 292l-4-4v8l4-4ZM244 292l-4-4v8l4-4ZM264 292l-4-4v8l4-4ZM284 292l-4-4v8l4-4ZM304 292l-4-4v8l4-4ZM324 292l-4-4v8l4-4ZM344 292l-4-4v8l4-4ZM364 292l-4-4v8l4-4ZM384 292l-4-4v8l4-4ZM404 292l-4-4v8l4-4ZM4 316l-4-4v8l4-4ZM24 316l-4-4v8l4-4ZM44 316l-4-4v8l4-4ZM64 316l-4-4v8l4-4ZM84 316l-4-4v8l4-4ZM104 316l-4-4v8l4-4ZM124 316l-4-4v8l4-4ZM144 316l-4-4v8l4-4ZM164 316l-4-4v8l4-4ZM184 316l-4-4v8l4-4ZM204 316l-4-4v8l4-4ZM224 316l-4-4v8l4-4ZM244 316l-4-4v8l4-4ZM264 316l-4-4v8l4-4ZM284 316l-4-4v8l4-4ZM304 316l-4-4v8l4-4ZM324 316l-4-4v8l4-4ZM344 316l-4-4v8l4-4ZM364 316l-4-4v8l4-4ZM384 316l-4-4v8l4-4ZM404 316l-4-4v8l4-4ZM4 340l-4-4v8l4-4ZM24 340l-4-4v8l4-4ZM44 340l-4-4v8l4-4ZM64 340l-4-4v8l4-4ZM84 340l-4-4v8l4-4ZM104 340l-4-4v8l4-4ZM124 340l-4-4v8l4-4ZM144 340l-4-4v8l4-4ZM164 340l-4-4v8l4-4ZM184 340l-4-4v8l4-4ZM204 340l-4-4v8l4-4ZM224 340l-4-4v8l4-4ZM244 340l-4-4v8l4-4ZM264 340l-4-4v8l4-4ZM284 340l-4-4v8l4-4ZM304 340l-4-4v8l4-4ZM324 340l-4-4v8l4-4ZM344 340l-4-4v8l4-4ZM364 340l-4-4v8l4-4ZM384 340l-4-4v8l4-4ZM404 340l-4-4v8l4-4ZM4 364l-4-4v8l4-4ZM24 364l-4-4v8l4-4ZM44 364l-4-4v8l4-4ZM64 364l-4-4v8l4-4ZM84 364l-4-4v8l4-4ZM104 364l-4-4v8l4-4ZM124 364l-4-4v8l4-4ZM144 364l-4-4v8l4-4ZM164 364l-4-4v8l4-4ZM184 364l-4-4v8l4-4ZM204 364l-4-4v8l4-4ZM224 364l-4-4v8l4-4ZM244 364l-4-4v8l4-4ZM264 364l-4-4v8l4-4ZM284 364l-4-4v8l4-4ZM304 364l-4-4v8l4-4ZM324 364l-4-4v8l4-4ZM344 364l-4-4v8l4-4ZM364 364l-4-4v8l4-4ZM384 364l-4-4v8l4-4ZM404 364l-4-4v8l4-4ZM4 388l-4-4v8l4-4ZM24 388l-4-4v8l4-4ZM44 388l-4-4v8l4-4ZM64 388l-4-4v8l4-4ZM84 388l-4-4v8l4-4ZM104 388l-4-4v8l4-4ZM124 388l-4-4v8l4-4ZM144 388l-4-4v8l4-4ZM164 388l-4-4v8l4-4ZM184 388l-4-4v8l4-4ZM204 388l-4-4v8l4-4ZM224 388l-4-4v8l4-4ZM244 388l-4-4v8l4-4ZM264 388l-4-4v8l4-4ZM284 388l-4-4v8l4-4ZM304 388l-4-4v8l4-4ZM324 388l-4-4v8l4-4ZM344 388l-4-4v8l4-4ZM364 388l-4-4v8l4-4ZM384 388l-4-4v8l4-4ZM404 388l-4-4v8l4-4Z"/></g><defs><clipPath id="a"><path fill="#fff" d="M0 0h404v392H0z"/></clipPath></defs></svg>